<mxfile host="app.diagrams.net" modified="2023-05-27T06:49:43.221Z" agent="Mozilla/5.0 (Windows NT 10.0; Win64; x64; rv:109.0) Gecko/20100101 Firefox/113.0" etag="rTllcHWyQKVOBU_Nhh1D" version="21.3.4" type="device">
  <diagram name="Page-1" id="MloeSZYJ_PGKRPNA3trs">
    <mxGraphModel dx="1434" dy="774" grid="1" gridSize="10" guides="1" tooltips="1" connect="1" arrows="1" fold="1" page="1" pageScale="1" pageWidth="850" pageHeight="1100" math="0" shadow="0">
      <root>
        <mxCell id="0" />
        <mxCell id="1" parent="0" />
        <mxCell id="RpqOekbnM1O3A4IwLTI4-2" value="Controllers" style="text;html=1;align=center;verticalAlign=middle;resizable=0;points=[];autosize=1;strokeColor=none;fillColor=none;" vertex="1" parent="1">
          <mxGeometry x="60" y="30" width="80" height="30" as="geometry" />
        </mxCell>
        <mxCell id="RpqOekbnM1O3A4IwLTI4-25" style="edgeStyle=orthogonalEdgeStyle;rounded=0;orthogonalLoop=1;jettySize=auto;html=1;exitX=0.5;exitY=1;exitDx=0;exitDy=0;entryX=0.5;entryY=0;entryDx=0;entryDy=0;" edge="1" parent="1" source="RpqOekbnM1O3A4IwLTI4-7" target="RpqOekbnM1O3A4IwLTI4-17">
          <mxGeometry relative="1" as="geometry" />
        </mxCell>
        <mxCell id="RpqOekbnM1O3A4IwLTI4-26" style="edgeStyle=orthogonalEdgeStyle;rounded=0;orthogonalLoop=1;jettySize=auto;html=1;exitX=0.5;exitY=1;exitDx=0;exitDy=0;entryX=0.5;entryY=0;entryDx=0;entryDy=0;" edge="1" parent="1" source="RpqOekbnM1O3A4IwLTI4-7" target="RpqOekbnM1O3A4IwLTI4-13">
          <mxGeometry relative="1" as="geometry" />
        </mxCell>
        <mxCell id="RpqOekbnM1O3A4IwLTI4-27" style="edgeStyle=orthogonalEdgeStyle;rounded=0;orthogonalLoop=1;jettySize=auto;html=1;exitX=0.5;exitY=1;exitDx=0;exitDy=0;entryX=0.5;entryY=0;entryDx=0;entryDy=0;" edge="1" parent="1" source="RpqOekbnM1O3A4IwLTI4-7" target="RpqOekbnM1O3A4IwLTI4-23">
          <mxGeometry relative="1" as="geometry" />
        </mxCell>
        <mxCell id="RpqOekbnM1O3A4IwLTI4-7" value="&lt;i&gt;AnimalController&lt;/i&gt;" style="swimlane;whiteSpace=wrap;html=1;" vertex="1" parent="1">
          <mxGeometry x="350" y="30" width="200" height="130" as="geometry" />
        </mxCell>
        <mxCell id="RpqOekbnM1O3A4IwLTI4-8" value="&lt;div&gt;Speed&lt;/div&gt;&amp;nbsp;(float)" style="text;html=1;align=center;verticalAlign=middle;resizable=0;points=[];autosize=1;strokeColor=none;fillColor=none;" vertex="1" parent="RpqOekbnM1O3A4IwLTI4-7">
          <mxGeometry x="15" y="20" width="60" height="40" as="geometry" />
        </mxCell>
        <mxCell id="RpqOekbnM1O3A4IwLTI4-9" value="Size (float)" style="text;html=1;align=center;verticalAlign=middle;resizable=0;points=[];autosize=1;strokeColor=none;fillColor=none;" vertex="1" parent="RpqOekbnM1O3A4IwLTI4-7">
          <mxGeometry x="5" y="60" width="80" height="30" as="geometry" />
        </mxCell>
        <mxCell id="RpqOekbnM1O3A4IwLTI4-10" value="Contact Damage (float)" style="text;html=1;align=center;verticalAlign=middle;resizable=0;points=[];autosize=1;strokeColor=none;fillColor=none;" vertex="1" parent="RpqOekbnM1O3A4IwLTI4-7">
          <mxGeometry x="5" y="80" width="150" height="30" as="geometry" />
        </mxCell>
        <mxCell id="RpqOekbnM1O3A4IwLTI4-37" value="virtual Interact()" style="text;html=1;align=center;verticalAlign=middle;resizable=0;points=[];autosize=1;strokeColor=none;fillColor=none;" vertex="1" parent="RpqOekbnM1O3A4IwLTI4-7">
          <mxGeometry x="75" y="30" width="110" height="30" as="geometry" />
        </mxCell>
        <mxCell id="RpqOekbnM1O3A4IwLTI4-13" value="BearController" style="swimlane;fontStyle=0;childLayout=stackLayout;horizontal=1;startSize=30;horizontalStack=0;resizeParent=1;resizeParentMax=0;resizeLast=0;collapsible=1;marginBottom=0;whiteSpace=wrap;html=1;" vertex="1" parent="1">
          <mxGeometry x="375" y="240" width="140" height="60" as="geometry" />
        </mxCell>
        <mxCell id="RpqOekbnM1O3A4IwLTI4-14" value="HitDamage" style="text;strokeColor=none;fillColor=none;align=left;verticalAlign=middle;spacingLeft=4;spacingRight=4;overflow=hidden;points=[[0,0.5],[1,0.5]];portConstraint=eastwest;rotatable=0;whiteSpace=wrap;html=1;" vertex="1" parent="RpqOekbnM1O3A4IwLTI4-13">
          <mxGeometry y="30" width="140" height="30" as="geometry" />
        </mxCell>
        <mxCell id="RpqOekbnM1O3A4IwLTI4-17" value="FoxController" style="swimlane;fontStyle=0;childLayout=stackLayout;horizontal=1;startSize=30;horizontalStack=0;resizeParent=1;resizeParentMax=0;resizeLast=0;collapsible=1;marginBottom=0;whiteSpace=wrap;html=1;" vertex="1" parent="1">
          <mxGeometry x="180" y="210" width="140" height="60" as="geometry" />
        </mxCell>
        <mxCell id="RpqOekbnM1O3A4IwLTI4-18" value="DashDistance" style="text;strokeColor=none;fillColor=none;align=left;verticalAlign=middle;spacingLeft=4;spacingRight=4;overflow=hidden;points=[[0,0.5],[1,0.5]];portConstraint=eastwest;rotatable=0;whiteSpace=wrap;html=1;" vertex="1" parent="RpqOekbnM1O3A4IwLTI4-17">
          <mxGeometry y="30" width="140" height="30" as="geometry" />
        </mxCell>
        <mxCell id="RpqOekbnM1O3A4IwLTI4-23" value="LynxController" style="swimlane;fontStyle=0;childLayout=stackLayout;horizontal=1;startSize=30;horizontalStack=0;resizeParent=1;resizeParentMax=0;resizeLast=0;collapsible=1;marginBottom=0;whiteSpace=wrap;html=1;" vertex="1" parent="1">
          <mxGeometry x="570" y="210" width="140" height="60" as="geometry" />
        </mxCell>
        <mxCell id="RpqOekbnM1O3A4IwLTI4-24" value="ScreamRadius" style="text;strokeColor=none;fillColor=none;align=left;verticalAlign=middle;spacingLeft=4;spacingRight=4;overflow=hidden;points=[[0,0.5],[1,0.5]];portConstraint=eastwest;rotatable=0;whiteSpace=wrap;html=1;" vertex="1" parent="RpqOekbnM1O3A4IwLTI4-23">
          <mxGeometry y="30" width="140" height="30" as="geometry" />
        </mxCell>
        <mxCell id="RpqOekbnM1O3A4IwLTI4-42" style="edgeStyle=orthogonalEdgeStyle;rounded=0;orthogonalLoop=1;jettySize=auto;html=1;exitX=1;exitY=0.25;exitDx=0;exitDy=0;entryX=1;entryY=0.5;entryDx=0;entryDy=0;dashed=1;" edge="1" parent="1" source="RpqOekbnM1O3A4IwLTI4-28" target="RpqOekbnM1O3A4IwLTI4-7">
          <mxGeometry relative="1" as="geometry">
            <Array as="points">
              <mxPoint x="780" y="383" />
              <mxPoint x="780" y="95" />
            </Array>
          </mxGeometry>
        </mxCell>
        <mxCell id="RpqOekbnM1O3A4IwLTI4-43" value="Many" style="edgeLabel;html=1;align=center;verticalAlign=middle;resizable=0;points=[];" vertex="1" connectable="0" parent="RpqOekbnM1O3A4IwLTI4-42">
          <mxGeometry x="-0.115" y="1" relative="1" as="geometry">
            <mxPoint x="-139" y="-94" as="offset" />
          </mxGeometry>
        </mxCell>
        <mxCell id="RpqOekbnM1O3A4IwLTI4-44" value="One" style="edgeLabel;html=1;align=center;verticalAlign=middle;resizable=0;points=[];" vertex="1" connectable="0" parent="RpqOekbnM1O3A4IwLTI4-42">
          <mxGeometry x="-0.8638" y="6" relative="1" as="geometry">
            <mxPoint x="-14" as="offset" />
          </mxGeometry>
        </mxCell>
        <mxCell id="RpqOekbnM1O3A4IwLTI4-28" value="PartyController" style="swimlane;fontStyle=0;childLayout=stackLayout;horizontal=1;startSize=30;horizontalStack=0;resizeParent=1;resizeParentMax=0;resizeLast=0;collapsible=1;marginBottom=0;whiteSpace=wrap;html=1;" vertex="1" parent="1">
          <mxGeometry x="555" y="360" width="170" height="90" as="geometry" />
        </mxCell>
        <mxCell id="RpqOekbnM1O3A4IwLTI4-29" value="Leader (AnimalController)" style="text;strokeColor=none;fillColor=none;align=left;verticalAlign=middle;spacingLeft=4;spacingRight=4;overflow=hidden;points=[[0,0.5],[1,0.5]];portConstraint=eastwest;rotatable=0;whiteSpace=wrap;html=1;" vertex="1" parent="RpqOekbnM1O3A4IwLTI4-28">
          <mxGeometry y="30" width="170" height="30" as="geometry" />
        </mxCell>
        <mxCell id="RpqOekbnM1O3A4IwLTI4-30" value="Members [AnimalController]" style="text;strokeColor=none;fillColor=none;align=left;verticalAlign=middle;spacingLeft=4;spacingRight=4;overflow=hidden;points=[[0,0.5],[1,0.5]];portConstraint=eastwest;rotatable=0;whiteSpace=wrap;html=1;" vertex="1" parent="RpqOekbnM1O3A4IwLTI4-28">
          <mxGeometry y="60" width="170" height="30" as="geometry" />
        </mxCell>
        <mxCell id="RpqOekbnM1O3A4IwLTI4-36" value="Dash()" style="text;html=1;align=center;verticalAlign=middle;resizable=0;points=[];autosize=1;strokeColor=none;fillColor=none;" vertex="1" parent="1">
          <mxGeometry x="180" y="270" width="60" height="30" as="geometry" />
        </mxCell>
        <mxCell id="RpqOekbnM1O3A4IwLTI4-38" value="" style="shape=flexArrow;endArrow=classic;html=1;rounded=0;" edge="1" parent="1">
          <mxGeometry width="50" height="50" relative="1" as="geometry">
            <mxPoint x="380" y="420" as="sourcePoint" />
            <mxPoint x="540" y="420" as="targetPoint" />
          </mxGeometry>
        </mxCell>
        <mxCell id="RpqOekbnM1O3A4IwLTI4-39" value="Controls entrypoint" style="text;html=1;align=center;verticalAlign=middle;resizable=0;points=[];autosize=1;strokeColor=none;fillColor=none;" vertex="1" parent="1">
          <mxGeometry x="375" y="380" width="130" height="30" as="geometry" />
        </mxCell>
        <mxCell id="RpqOekbnM1O3A4IwLTI4-40" value="" style="endArrow=none;dashed=1;html=1;rounded=0;" edge="1" parent="1">
          <mxGeometry width="50" height="50" relative="1" as="geometry">
            <mxPoint x="40" y="560" as="sourcePoint" />
            <mxPoint x="830" y="560" as="targetPoint" />
          </mxGeometry>
        </mxCell>
        <mxCell id="RpqOekbnM1O3A4IwLTI4-46" style="edgeStyle=orthogonalEdgeStyle;rounded=0;orthogonalLoop=1;jettySize=auto;html=1;exitX=1;exitY=0.5;exitDx=0;exitDy=0;entryX=0;entryY=0.25;entryDx=0;entryDy=0;dashed=1;dashPattern=8 8;" edge="1" parent="1" source="RpqOekbnM1O3A4IwLTI4-41" target="RpqOekbnM1O3A4IwLTI4-28">
          <mxGeometry relative="1" as="geometry">
            <Array as="points">
              <mxPoint x="170" y="370" />
              <mxPoint x="490" y="370" />
              <mxPoint x="490" y="383" />
            </Array>
          </mxGeometry>
        </mxCell>
        <mxCell id="RpqOekbnM1O3A4IwLTI4-41" value="CameraController" style="rounded=0;whiteSpace=wrap;html=1;" vertex="1" parent="1">
          <mxGeometry x="50" y="375" width="120" height="60" as="geometry" />
        </mxCell>
        <mxCell id="RpqOekbnM1O3A4IwLTI4-45" value="*cinemachine" style="text;html=1;align=center;verticalAlign=middle;resizable=0;points=[];autosize=1;strokeColor=none;fillColor=none;" vertex="1" parent="1">
          <mxGeometry x="50" y="450" width="100" height="30" as="geometry" />
        </mxCell>
        <mxCell id="RpqOekbnM1O3A4IwLTI4-47" value="Follows" style="text;html=1;align=center;verticalAlign=middle;resizable=0;points=[];autosize=1;strokeColor=none;fillColor=none;" vertex="1" parent="1">
          <mxGeometry x="230" y="330" width="70" height="30" as="geometry" />
        </mxCell>
        <mxCell id="RpqOekbnM1O3A4IwLTI4-50" value="UI" style="text;html=1;align=center;verticalAlign=middle;resizable=0;points=[];autosize=1;strokeColor=none;fillColor=none;" vertex="1" parent="1">
          <mxGeometry x="30" y="588" width="40" height="30" as="geometry" />
        </mxCell>
        <mxCell id="RpqOekbnM1O3A4IwLTI4-51" value="HealthBar" style="rounded=0;whiteSpace=wrap;html=1;" vertex="1" parent="1">
          <mxGeometry x="260" y="680" width="120" height="60" as="geometry" />
        </mxCell>
        <mxCell id="RpqOekbnM1O3A4IwLTI4-53" value="Timer" style="whiteSpace=wrap;html=1;" vertex="1" parent="1">
          <mxGeometry x="425" y="680" width="120" height="60" as="geometry" />
        </mxCell>
        <mxCell id="RpqOekbnM1O3A4IwLTI4-54" value="Portrait" style="whiteSpace=wrap;html=1;" vertex="1" parent="1">
          <mxGeometry x="340" y="670" width="60" height="30" as="geometry" />
        </mxCell>
        <mxCell id="RpqOekbnM1O3A4IwLTI4-55" value="ActiveBuff" style="whiteSpace=wrap;html=1;" vertex="1" parent="1">
          <mxGeometry x="605" y="680" width="120" height="60" as="geometry" />
        </mxCell>
        <mxCell id="RpqOekbnM1O3A4IwLTI4-56" value="Cycle through party healthbars" style="text;html=1;strokeColor=none;fillColor=none;align=center;verticalAlign=middle;whiteSpace=wrap;rounded=0;" vertex="1" parent="1">
          <mxGeometry x="260" y="740" width="120" height="40" as="geometry" />
        </mxCell>
        <mxCell id="RpqOekbnM1O3A4IwLTI4-57" value="Area switching/Loading" style="rounded=0;whiteSpace=wrap;html=1;" vertex="1" parent="1">
          <mxGeometry x="60" y="1200" width="120" height="60" as="geometry" />
        </mxCell>
        <mxCell id="RpqOekbnM1O3A4IwLTI4-58" value="Mission Systems" style="text;html=1;strokeColor=none;fillColor=none;align=center;verticalAlign=middle;whiteSpace=wrap;rounded=0;" vertex="1" parent="1">
          <mxGeometry x="30" y="1130" width="60" height="30" as="geometry" />
        </mxCell>
        <mxCell id="RpqOekbnM1O3A4IwLTI4-59" value="" style="endArrow=none;dashed=1;html=1;rounded=0;" edge="1" parent="1">
          <mxGeometry width="50" height="50" relative="1" as="geometry">
            <mxPoint x="40" y="1070" as="sourcePoint" />
            <mxPoint x="800" y="1070" as="targetPoint" />
          </mxGeometry>
        </mxCell>
        <mxCell id="RpqOekbnM1O3A4IwLTI4-61" value="Dialogue logic" style="rounded=0;whiteSpace=wrap;html=1;" vertex="1" parent="1">
          <mxGeometry x="590" y="1030" width="120" height="60" as="geometry" />
        </mxCell>
        <mxCell id="RpqOekbnM1O3A4IwLTI4-63" value="Main Menu" style="whiteSpace=wrap;html=1;" vertex="1" parent="1">
          <mxGeometry x="60" y="880" width="120" height="60" as="geometry" />
        </mxCell>
        <mxCell id="RpqOekbnM1O3A4IwLTI4-65" value="Other menus" style="whiteSpace=wrap;html=1;" vertex="1" parent="1">
          <mxGeometry x="130" y="930" width="90" height="40" as="geometry" />
        </mxCell>
        <mxCell id="RpqOekbnM1O3A4IwLTI4-66" value="Sound effects" style="whiteSpace=wrap;html=1;" vertex="1" parent="1">
          <mxGeometry x="385" y="910" width="120" height="60" as="geometry" />
        </mxCell>
        <mxCell id="RpqOekbnM1O3A4IwLTI4-67" value="" style="shape=image;verticalLabelPosition=bottom;labelBackgroundColor=default;verticalAlign=top;aspect=fixed;imageAspect=0;image=data:image/png,iVBORw0KGgoAAAANSUhEUgAAAkYAAAGHCAYAAABVgZ3gAAAgAElEQVR4Xu3dCZgV1Z338f/tHXplXwSjqFGUJCyZEXwmsZmMQpYx4iQRfDOvaFRcJoGGiYIzBphMBHwii4lojBHzjlHIImiMgTjRNpkRnBmBJIhM3CIQRZqlF6AXuvu+9S+spvr2vd1161bdW3Xvt57HNy5Vp875nOv4e885dU6krq4u2tbWJiNHjhQuBBBAAAEEEEAgVwX+9Kc/SYRglKvdT7sRQAABBBBAwC5AMOL3gAACCCCAAAIIfCBAMOKngAACCCCAAAIIEIz4DSCAAAIIIIAAAt0FGDHiF4EAAggggAACCDBixG8AAQQQQAABBBBgxIjfAAIIIIBAAoHNmzfL9OnT8UEgZwWYSsvZrqfhCCCAQE+BgQMHytGjR2Xr1q0yefJkiBDIOQGCUc51OQ1GAAEEEgvceuutsnbtWrnyyitl3rx5Ul1dDRcCOSVAMMqp7qaxCCCAQO8C119/vTzyyCPmTbNmzZLHH39cIpEIbAjkjADBKGe6moYigAACfQtYI0Z654wZM+TJJ59MGIyaV94nTQvmicamwksvk7LvrpKCcRf2/RLuQCDAAgSjAHcOVUMAAQS8FtARoXXr1kk0Go1bdP/+/eXEiRNd/+yaa64xR43iXe8bI0n55UNFWltFioulYOJ4qard0meV27fvNO/R+7kQCJoAwShoPUJ9EEAAAR8Famtr5eWXX5aFCxfKnDlz5IEHHugaEdq2bZt85jOfkSNHjnTVIC8vTzo7O+PW6PiSf5WIEYhKbpsjR4acKdG2RhkSjX+vFtDxxlvSdMMtcvLF30hUWqR04V1SuuxfpP3V16Tt6WfMsvy6IhUV0njjdcboVolfrwh5ua1SdPnnpOiKz54Kug6vzsZGKV3yzw7vDsdtBKNw9BO1RAABBDwTuO6668xRo9mzZxv/DWyVJ554Qm6++eau8h988MGuP9ewtGbNGvOe3q66SD/zHw+JNse9Tafdji2okUj5YIk2NRpTb580p96krU0OT5ogeWkILJHyCvPdXPEFIkXFRrh1Hoq0lNhnNPBWfN8YkTQCU7wravzeiq74nBRcNDaw3UAwCmzXUDEEEEDAHwErGGnpGnw+/elPS0tLizQ3xw81ev+1117b6xdqvQWj+inVotNn+h9dDUTlDz8g+eeO6WqcjjzlGSM6fl/ZOLrhpVnS/WCM8LU9/Qtp+9UzRjWcj/a5CWBettMYEju1Jm7lirjTuQQjb7UpDQEEEAi8gC6q3rhxY1c9Z86cKevXr+9Wb/17+od+tq/Tb48++qgZnvQT/nj7G8ULRh37/yyHR4+S/MGjpePQPhm0d5/kG3/Nld0CvQWsoExp2qdyY3uDYJTdv09ahwACCMQViA1HsTdpINq0aVOPZ3XNkY4e6VSc/YoXjA4a9xaccY60739DBu3bL/mjzvClN3Y1LJIR/a6QQUVTPCl/V8OdRnl/61l5nlSKQtImQDBKGzUvQgABBNIvoFNlU6Z0Dww66qPXqlXGGh8Xl1Wm/cu22GCk02e62FpHioYm+ALOxat7PLK7cYn8vn6pjB/wLbmg/M6Ui7TKmzRwpZxXVpNyeZko4IWDl8je41vl2rN1ITx7UCXbBwSjZMW4HwEEEAiogDXl9dRTT0l9fb351ZmO/MQ7+yx2REjXGf3yl7903TJ7MDLXFBlfmnU2HfR1pEgr+/bxH8grR26Qjw241wgy813X33pwT9Myea1hqQwuqZZPDN6ccnmZKODH+yLGYnaRL4wmGLnxJxi5UeMZBBBAIGACGnRKSkp6rBVyWk2dNtMy3F4ajPSrr/IfPCBNX75eOtsaZKh+5u/zrtnr90akX36FnFdeIxdWLHFb/a7nGk++Kr9+/+NyMtoiXxodf6+nlF/icwE/NYKRXmEIRuq97fDV8hcDfygDiib5LOOseIKRMyfuQgABBBDoRUCDUf6oUdLZ0Gh+Ej9w3xu+rSmyV8OPEPDTfTreEjWCRfqDkQaFjfvHyV8MWuw66Plh4teP/9/fnyT1bdtlXJU3U6Fe1JNg5IUiZSCAAAI5LNC86jtyfLHxyX1lhRmMdI+aqq21aRHREKATRl/ycNook8FIp/J21d9pTA26X+MUpmD05rG1suPobZ5NhXrxoyMYeaFIGQgggEAIBHQd0bPPPuvpobC6wPrIeecao0PnSLSlVfI1FDk4FsQLLl1krCMsVUUT5dIhzxtFerPQOJPB6PVjq+R3R+eHIhgdNUZ6nnl3kozqP0WmDv1PV/6n2+vNGjEvflcEIy8UKQMBBBAIuMCsWbPMxdjV1dU9aqobOOo+RfZr+PDhcuDAAXn++edl6tSpCVtXP3W6dOzaLZGSYunYv18Gvv5qt80b/WTRRcaFkWK5bPguKSs417NXZTIYnV5MHvwRIw1GWw5MMtd4VRReZISjl5LuA4JR0mQ8gAACCCDghYB9t+tE5dXU1MjKlSu7jShZn+brwu7YnbHN0aIPj5P8M85I+xTaqUXSk6S1s1VmnuntWqBMBqP1e/OMoFGe0mLydE6lnejYJ1veO89YrN7qarG6FQRZY+TFv+WUgQACCCDgSMDpeWcanh555JG4U2179uyRsWPHyvbt22XChAnme+urp0mH8Vm+XuYU2gvG5+0+f4VmNfjN48balCO3yYSB98s5pbc6cnByUya/StPRk90NS+RYe6P8nw+5D3vpDEZqevp9yddZvyosziuWTw37H2PUaZyTLvL9HqbSfCfmBQgggEBmBSJGWLFvxpioNrfccousXbu2WzDavHlzt32QdEqu2Dgjq7G8TDY8/Lg0DR5kTKG9aUyhGV+h2c4/87vFOrJSnFdk/Af1FXMax6tLA9fvjy4w9jG6NK37GB1rf0OeNUZe9Hu4z4zcK/3zR7tuUrqDkTWlmWxf6GaarzetkuaORmPULzh7LhGMXP/0eBABBBAIvoBu+qhXvLVFsbXv16+fnDhxolsw0iNAOnU/ojiXuXeRcSJ76fJvSr+ar6YNQ0PEcwc+YkyjtXg+jWbti3R+xUJjJ+1FaWvTi3VT5UjrVhlYPMVYSP5CSu9NdzD67aHpcqilVsZWLk7KzFpfNGngw3J26VdSarOXDxOMvNSkLAQQQCBgAr0FG3tVrbVEGoJ0hMm6eg9GeVJ0+eekcsvTaW21FSLGVS3z9NgOa73MiY7WlKayksXQr+t0Lx/dbftjld9OeUop3cHo1Cf3//DBJ/fOj1E5vb7o7qQCVbK+yd5PMEpWjPsRQACBAAtowFm9erVUVVXJ9773vW5rghJVe+bMmeY/Wr9+fY9belufdNAIUGV33yP9F309bSI6WrTZmHJqN5azeL3o+kfvRIwprGKZNuKPxv+embY2ef11XbqD0amAc2PSwej0+iJvp0NT7TiCUaqCPI8AAggEQEDDjZ6R1tLSYk592Ud9equejgi99NJLMnny5IS3Jfqi7X0jGA1Lw7Ef9opZo0UfNc5GO6f0Ns/krYXP6V7v8ruGBfJ640pjWlA8G6VKdzByeyxLKou2Pev4OAURjPzUpWwEEEAgDQK6B9Hs2bNdvemaa66Rxx9/vNdngxKMdKrr2XfPNEeLPjPiDylPOdkbbX0mf2HlEk+n55x0yq6GRXJm/y97tog83cHo9O7jzr9K83O7BSfmvd1DMEpVkOcRQACBkAo4DVRBCEYaip7+84ekIBJN+aut2O7K5Cf6fvx00hmMftcwX/63cZUMM9ZHJbNo3Dr6JGgLr7U/CEZ+/CopEwEEEMgiAd34sb6+XtatW9etVemaSrNCkX6er8d/uNlhubfu0BGb3Y3Lk/6Pe1C7OJ3BSA12y/0ySr4gFTLMMckeeVh+V3+jTKj6vnxYbnD8XDpuJBilQ5l3IIAAAgEUiN2jKFEVNRjptWrVqm631EXypHDyJ309MFYXWz/z7nnmJoDjqu42prnm+yL5anSZnBH5olSJ86NFji/5V+OMuFHSeNP1EokW+1KvZAstNs6Ley46UPJbIzLho3VS9sdTh+z6eRVGjMODjZ2vO6TV8WtKpFL+9zslMvBnx6Wy9ljcOkalRcrvXSP95n/Ncble3Egw8kKRMhBAAIEQCugCbScLtRMFI/0qLX/waOk4tM+3/4DpYmv9lL3qjMvlUvmxodzzoNh2Y/fttqefkYix8aTbqyDv1H/c9Y9EV6SiQhpvvM6oQYl5S6S8QqJNjeZeTtE256HAbR2dPFdk1O7lTa3SOK1MzlraKecs75B2cb72x8k7vLqnwKhrp1G33oJbhxGOhkfTW3+CkVc9TDkIIIBAiASS2fgxUTDq2P9nOXzmaMkrNALCB8FA/3/5Fd9fJ9HGRtcaGkCajQDypxsK5Z17q+RkRZFckZcvjdGDccvUYKJXOsKJFYbM9+mIxncflMLqT0qBcSRKkC6dHhxZ+WUZKN7tCh6k9vlZF4KRn7qUjQACCARUwOkxIVr9RMHIapqO2Jys/Y00ffWWbiHJbdP1WIy2vzhDXnq5RfKb2uRDC+rlrIcLehn5aDU3miy64rMirf6O3HQaga908T/HG7hy21yeC5gAwShgHUJ1EEAAAb8FZsyYIRs3bnT8mkSLr+MV4MW0VsnxSvl/d82Wiv3Fviy2dtxwbsxJAYJRTnY7jUYAgVwV6G0n60QmiT7X99NQP6Hfe+IxGVe5zM/XUDYCPQQIRvwoEEAAgRwR2Llzp0ycODHhobBBCkY50iU0M4ACBKMAdgpVQgABBLwWmDdvnqxZs8bRV2ix787EiJHX7ac8BJwKEIycSnEfAgggEHCB2GNB9CBZPTtNQ9HYsWMl6uKzZ/16TQ+jfeKJJwLeeqqHgDcCBCNvHCkFAQQQyJjApk2bZMOGDVJs7OOjx3xYlwYlDUcHDhyQ9evXu6qfk7PUXBXMQzkp0LU439iSoe3pX0jbr54xHNzvP2UherkZJMEoJ3+aNBoBBBBwJkAwcubEXfEFzK0ctjwnbVv+3QxBkaIK80bdc8rLjTG1rI62BhnmYlQ0tuYEI37NCCCAAAJxBWbNmiVz5syR6urqwAvp8Ry683XRFZ9zvdli/ZRqadv2olQ89Iixo3VTjzZH2kSKDkekvSwqHeXJk+QbRR6tjsrQn+VJy1np3c05+dq6eMLwjx0FssLP6U04G7v2nOqsq5PSJcaeUB5cGsBaH3tcSpd9M+XSCEYpE1IAAgggkJ0Cut/Rk08+KboZZDqv2ICSaFPFjjfekqYbbpGTLz5nHM8xxNzcMdrWKGUrjfO1ar6aVJXrL5kq7bt2f1BGz00iddPJY+OK5D/+EJWL/rFIPnTviaSO2tDn6ydG5ZX/LpJ24y8+F2k3ThYLRzjKN6a68iLFcjKaeDfzYuMI2U7jZ9JeqH1w2s/aCV1DUCqhNanOTPFmglGKgDyOAAIIZKNAMjtje9l+DUX6//vXS88h0+vUqEOjFF56mZT/2w/Mv9f0f28wdtt+seu8MiPRSPEXr5G2zc9JZ9NBGdppnMDlINA1r7xPmhbMlbzyoeZzgxsapOX+7/U4d62grVhevfgpeecj/yOtA1vki9/6jrSUNiTV9H5HK+VnXz91IOpVa+5L+vmkXubRzRqI6k/ukL3HH5PxA74j7Z09R9JK2ofIlr++TYY9GZGLihdL0eL0HvrqUVO7iiEYeS1KeQgggEAWCGzevFmmT5+e1pZoIDo6bqIZhMruX33qvDXb9Iy1PsWslPH3NTgVTr5YqrbWdtWzvnqatG/faU6n2f9+vIaYIcy4V6+CKRdL+cMPSP65Y3pt80/3nRo9+8Jod6M9qT6f1g754GWPHzUOCzaafXWVHvfac/TwiLwqLxz8uLQXtRj3uHPJRLsSvZNgFKTeoC4IIIBADgs0r31Ijtfcbh7KWrnl6R4S1uhOxPiPszl6FCfI6PTa0YsmmiNMQ6Lxz223Dr/NHzRKOg/tl7J7V0u/+c5GOVINNqk+n4mfx4+NMFhojBx9atj/SEXhuLhV+Ok+nSyMug6MmWgXwShI6tQFAQQQQKCHwMG8PMkrGyL97/y69F/4j66F6iL9zGeHRJt7lGGGotGjJH/waOk4tE8G7dsv+aPOcPyuVIONm+dfOHiJMZW1Va4925vRmF0Ni2REvytkUNEUR+3+7aHpcqilVsZWfkMuKL+TYORIjZsQQAABBBBIUaAur78x6BCNG2iSKTpRMNKps5PbXjbXJTmZaov3TjfBxl6Om+d1xEbHY9xO39nfv7txify+fqmxXuhuI+QscsT65rG1suPobfKxAffKeWXzCUaO1LgJAQQQQACBFAX8DEbWV2dd65JeesHR4uzYJrkJNqkGo1TfaX//68dWye+OzjdCzkoj5NQ46jHrmUkDvy9nl95AMHKkxk0IIIAAAgikKOBXMLK+dIs21cnAffuSmjojGInoKNPuhqXSbszkjatcaPyxrBtL48lX5dfvf9z4nL9FvuRyUXqKPx1PH2fxtaecFIYAAggg4FbAi2AUu/i6edV35PjCu8y9dcruXeF4kXWiNqQ6euPmeTfPJKq/mxEjLWt3wxJzL6MhJdU91ia9eXyt/P7oAhlccql8YvBmt90fmOcIRoHpCiqCAAII5LaAF8Go63P9ieOlqnaLHDT2MtI9ikqX/FPKoehY+xvy3IFxxshIq+uRETchx80zfQWjCQPul3PKbvXkB/ejdyJSVlAh51fckXBxticvSlMhBKM0QfMaBBBAAIHeBery8o3F10WuF1/rF2dHRp9rfDTeIoPe2SuRfiVyZNR5pz7d7+xwtabIXuMX66ZKfdt2qSqaKJcOMdYoJXnpaI2OvDR3NMrMM51/YeZlMNrTtExeM6bFBhsjP58Y/EujBanvan76q7n4+xwlyZTx2wlGGe8CKoAAAgggoAL1U6dL+ys7XH0xZn2Gr+VYn+DraJF+lq+bNla5XGxt7xlrP5/Lhv/BGCE5L+lO++HbESktkF6/7opXqJfBSNcD/fzdccYO1mJ8/p8dQSbpjujjAYKR16KUhwACCCDgSkDXBx0+7xzJK6qU0uXfdHzemW78eGxBjTFS1NltX6Le9jNKtoKnFhhP+mAazV2g0DL2nnjMWLx8d1IjNV4Go9h26+G7eRWnTrxP9jLPsPPoENhk3+3n/QQjP3UpGwEEEEAgKQFrOkzPPhu4d6/kG5sx9nZZx3p0tjX02KzRy2DkxxSUUxgdqSorGC2NJ/fJR6sWy4UVS5w+2uM+MwgNGSJtT/9C2n71jHn4rnUmnetCbQ9ah8aax7nY/75xwC+HyHohTBkIIIAAAjknYG3EqA2PPQvNjmF9hq+Hvw7aa3yGHxOivJxKszY59HLRstOO1TU8da1bpdNYltRXMOoaAbKdMWccLNf1Kt3cUoOQnkenlwbKiu+vO3UuXZJXxBhparzxOmOVUkmST+rhIS0J3xvNcIhixCjp7uQBBBBAAAG/BazzzPIKK+JOq1kbNpqhKMGxHtbok4aBQuOQ2KJpfyOF0y4z1zAlez3fOU0ON70oH6v8rnxY4m9ymGyZqd6vh+62PW2M+hgBpWsEqMgIPsbWBHpZ4cf6a/17ViDprKvzbQQn7vRcgqCWyEDrbtVb61z+beM8uwVzUyVz9DzByBETNyGAAAIIpFvg9LSaSNm3l3f9h7HbSFEfZ52dGn36jRESTgeGZNuhx3EcmzpYDn+uQKp+fkwqa48Zq5kyf9nDg/XnRZdfZgSezxozka2S6ZGXvoQSrW8yR6Juul4i0dMjXR1GOBpuHBeTjotglA5l3oEAAggg4ErAvmv1oPqj0vqjDXK85nbzE/xkdrGOXVtjn15yUjENR3nGpFGnucQ7GJc5+vPQI8bUWFPgQ1AwxJzVgmDkzIm7EEAAAQQyJKDhSL9YM9fBGFMyOhpSuuxfUt6wMUPN4bUBFyAYBbyDqB4CCCCAgMjBvDzJH3TqC7UCY1frys1PpbxhI64IxBMgGPG7QAABBBAIvICOGDXdeKucrP2VlK1c43iPo8A3jAoGToBgFLguoUIIIIAAAokEji+6y/yaSr8y40LADwGCkR+qlIkAAggggAACoRQgGIWy26g0AggggAACCPghQDDyQ5UyEUAAAQQQ8FGga3NH/UovJFfQ91WyGAlGIflBUU0EEEAAgd4FzAXaN9wiJ198zthtKCrl9xqLtOd/LVBsjgKNg12i7Zs7BqqBGaxMb8eMJFOt96+6QiJ1dXXRtrY2GTlyZDLPci8CCCCAAAKBENDAcWTchZJXPrTHWWB+ByTz+BLjnDYnZ4Y5DTR93edVCPCr8wryKoyz3VrNP7ouB4Evlfr0Zea07ONv7SYYOcXiPgQQQACBYAqcWP5tObH4X6Ww+pNSueVpc0PIU6NHvzErrF+y6dX29M+M/9eafmqVwksvk/KHH5D8c8e4aljzyvvk2IIayR81Rjr27++zDPtu1b3d3GlsZlm65J/7LC+oN7waXSYjIlfIQLkobVV0NBrnoDaMGDlA4hYEEEAAgWALNK/6jhybf7uU3W9Mn916U1dl7QEp3qGqesCseRDt3n2Sb4z6JHOZx5Vs32nuxt1hlDEsTWd5JVPHTNy7u3GJ/L5+qYwf8C25oPzOhFVoPPmq7D3xmIyrXJaJaiZ8J2uMAtUdVAYBBBBAwI1AVzBaeU/czR/1rLSIEWB05KjgorFdr7AfSDtw1+5u/yxRPaywpaEo2lRnHHC7Km0nv7uxSfczrx9bJb87Ol8mDfy+nF16Q8LX/+idiORHRGaemZ7DYZ06EIycSnEfAggggEBgBfoKRr1VvGHaFcaO2r+R/kv/Wfov/Mde22iuJzpztOSVDTk10rRvvzGNdkZgXTJRMR0x2t2wVAqNdUbNHY0yacBKOa+8pkdVfrrPSEXG9YXRBKNM9BPvRAABBBDIYoFUglHz2ofk2D/Mk7J7V/R61IiOFB0+7xxzgbee15bK2qQs7gqzaa83rZJXjFGjAiP7NLaLXH92p/F3TwUh6yIYZfuvgPYhgAACCGRMIKVgZK5PusM4g633YFRfPc1cU6ShqKp2S9rb6tWanBcOXiJ7j2+Va+OElXiN+vf3J8mh1u0yol+1fLTyXhlQNNGTtv/kYEQK2opl2ojXpX/+aE/K9KIQptK8UKQMBBBAAIGMCljBSEdxSr4yO6m6OB0xqovkSaSoQgYefEfyKiuTeocXN3u1Juff/hSRqqIhUlZwrkwd+p89RnJi6/p8c7Ucbtsm7YWt8rH+35UL5baEzXH6ZVjRyQp5/i9rpPnjZdJSv18mjn5Izvlai7Scldq0mvk132Lja77ug1NJ8ROMkuLiZgQQQACBIAocX/otab73PnPdz9Akvw5zusboYMRYLDx4tDliVPbdVZJvTKul8/Jq6ulExz559t0zpTh/iDRE6uQzI3b1+KzeHnCK8oZIfkmFtP38F3L82celXWx7E8UAJLOXUJlUyn883yqNkzolzyiybFeefPKvi6VRGlyzdkqLDOs0pu2MvnJ7EYzcyvEcAggggECgBDS46PqfUmMRdb+arzqqmy6mPjL6XOPeVhmw69Vev0qzNnLMK6qUaFurFF1+mRRN+xspnHaZo6/ZHFWol5u8Ckb6ihfli/K+1MqAF9rlb/57rbSUNhp7PP1C2n71jPFPi42RsVN7PWk7rctJ6El248ni9yLSVF0mv/z4V6Q4r1yahjTK33/zUaM+7sIRI0ap/sp4HgEEEEAgawR0Ou34wruks61BhjoYNbDvWF327eWOPrnXkRT9gq3pq7dIXmGFGRxOBwYNS58ztgT4rJGzEo+quAEvOV4pT849dbzJVWvuSyo4RCoqpPHG67rtzF0cMUaBIsXSaeSf1o66mHboW3q2xc9NJ3X91LvNT5s7ZV9YucQNkWfPMGLkGSUFIYAAAghkWkD3JdKvx9oP7et1w8VTO1bPM0dHzK/RXJyppnsj5Y8aJY03XS+RqL+HuRpjOPLr6CCTd1rkmBw3poySuXQjy2hTY5xHTgegzrq6UO+2nYxHb/cSjLySpBwEEEAAgUAIWGuB9JiPqq21Pepk7Vitoz1uQ1GihjpdfJwslI4YPfEPs6X4ZLGc88an5aLfTJf2IuejUl5MMSVb57DeTzAKa89RbwQQQACBuAL2TRh1l2t7OLJ2ujZ3rL53tauRokyx63TT/hM/keGVegaZN5/MZ6otQX4vwSjIvUPdEEAAAQRcCXQtlDYWY+uXahU//JG0/mi9nNz6snmMx8C9e5M+G81VRXgodAIEo9B1GRVGAAEEEHAi0O0AWWONjZ6VFjUWRZcu+adQjRQ5aSv3eCdAMPLOkpIQQAABBAIoYE2tFZxxjnTs3y9Dos0BrCVVCooAwSgoPUE9EEAAAQR8E7B/mt9/4del9O6lKW0C6FtFKTjjAgSjjHcBFUAAAQQQSIeAfjHW+pOfGZsyXiaFUy5Oxyt5RwgFCEYh7DSqjAACCCCAAAL+CBCM/HGlVAQQQAABBBAIoQDBKISdRpURQAABBBBAwB8BgpE/rpSKAAIIIIAAAiEUIBiFsNOoMgIIIIAAAgj4I0Aw8seVUhFAAAEEEEAghAIEoxB2GlVGAAEEEEAAAX8ECEb+uFIqAggggAACCIRQgGAUwk6jyggggAACCCDgjwDByB9XSkUAAQQQQACBEAoQjELYaVQZAQQQQAABBPwRIBj540qpCCCAAAIIIBBCAYJRCDuNKiOAAAIIIICAPwIEI39cKRUBBBBAAAEEQihAMAphp1FlBBBAAAEEEPBHgGDkjyulIoAAAggggEAIBQhGIew0qowAAggggAAC/ggQjPxxpVQEEEAAAQQQCKEAwSiEnUaVEUAAAQQQQMAfAYKRP66UigACCCCAAAIhFCAYhbDTqDICCCCAAAII+CNAMPLHlVIRQAABBBBAIIQCBKMQdhpVRgABBBBAAAF/BAhG/rhSKgIIIIAAAgiEUIBgFMJOo8oIIIAAAggg4I8AwcgfV6OLrzQAACAASURBVEpFAAEEEEAAgRAKEIxC2GlUGQEEEEAAAQT8ESAY+eNKqQgggAACCCAQQgGCUQg7jSojgAACCCCAgD8CBCN/XCkVAQQQQAABBEIoQDAKYadRZQQQQAABBBDwR4Bg5I8rpSKAAAIIIIBACAUIRiHsNKqMAAIIIIAAAv4IEIz8caVUBBBAAAEEEAihAMEohJ1GlRFAAAEEEEDAHwGCkT+ulIoAAggggAACIRQgGIWw06gyAggggAACCPgjQDDyx5VSEUAAAQQQQCCEAgSjEHYaVUYAAQQQQAABfwQIRv64UioCCCCAAAIIhFCAYBTCTqPKCCCAAAIIIOCPAMHIH1dKRQABBBBAAIEQChCMQthpVBkBBBBAAAEE/BEgGPnjSqkIIIAAAgggEEIBglEIO40qI4AAAggggIA/AgQjf1wpFQEEEEAAAQRCKEAwCmGnUWUEEEAAAQQQ8EeAYOSPK6UigAACCCCAQAgFCEYh7DSqjAACCCCAAAL+CBCM/HGlVAQQQAABBBAIoQDBKISdRpURQAABBBBAwB8BgpE/rpSKAAIIIIAAAiEUIBiFsNOoMgIIIIAAAgj4I0Aw8seVUhFAAAEEEEAghAIEoxB2GlVGAAEEEEAAAX8ECEb+uFIqAggggAACCIRQgGAUwk6jyggggAACCCDgjwDByB9XSkUAAQQQQACBEAoQjELYaVQZAQQQQAABBPwRIBj540qpCCCAAAIIIBBCAYJRCDuNKiOAAAIIIICAPwIEI39cKRUBBBBAAAEEQihAMAphp1FlBBBAAAEEEPBHgGDkjyulIoAAAggggEAIBQhGIew0qowAAggggAAC/ggQjPxxpVQEEEAAAQQQCKEAwSiEnUaVEUAAAQQQQMAfAYKRP66UigACCCCAAAIhFCAYhbDTqDICCCCAAAII+CNAMPLHlVIRQAABBBBAIIQCBKMQdhpVRgABBBBAAAF/BAhG/rhSKgIIIIAAAgiEUIBgFMJOo8oIIIAAAggg4I8AwcgfV0pFAAEEEEAAgRAKEIxC2GlUGQEEEEAAAQT8ESAY+eNKqQgggAACCCAQQgGCUQg7jSojgAACCCCAgD8CBCN/XCkVAQQQQAABBEIoQDAKYadRZQQQQAABBBDwR4Bg5I8rpSKAAAIIIIBACAUIRiHsNKqMAAIIIIAAAv4IEIz8caVUBBBAAAEEEAihAMEohJ1GlRFAAAEEEEDAHwGCkT+ulIoAAggggAACIRQgGIWw06gyAggggAACCPgjQDDyx5VSEUAAAQQQQCCEAgSjEHYaVUYAAQQQQAABfwQIRv64UioCCCCAAAIIhFCAYBTCTqPKCCCAAAIIIOCPAMHIH1dKRQABBBBAAIEQChCMQthpVBkBBBBAAAEE/BEgGPnjSqkIIIAAAgggEEKBq6++WiJ1dXXRtrY2GTlyZAibQJURQAABBBBAAAFvBAhG3jhSCgIIIIAAAghkgQDBKAs6kSYggAACCCCAgDcCBCNvHCkFAQQQQAABBLJAgGCUBZ1IExBAAAEEEEDAGwG+SvPGkVIQQAABBBBAIAsECEZZ0Ik0AQG7wLx588y/XL16NTAIIIAAAkkKEIySBON2BIIsMGDAAKmvr++q4ttvvy1nnXVWr1XW/yMwZswYOf/882XdunUyefLkIDeRuiGAAAK+ChCMfOWlcATSK7BixQpZuHBht5cuXrxY9I9IJGL+fR1RqqqqMv+oqanpdq8+u2zZsvRWmrchgAACARIgGAWoM6gKAqkKLF26VJYsWSIbN24U/fOdO3cmVaQ+qyGKCwEEEMhVAYJRrvY87c5KgUWLFsny5ctl/PjxsmPHDpk6darU1tbGbeuqVatE/w+ArkVas2aNOZJEMMrKnwWNQgCBJAQIRklgcSsCQRfQEaIJEybErWY0Gu2aTtMb9K+ty5qCIxgFvYepHwII+C1AMPJbmPIRSLOAtZjaCj72NUZnn322OUoUG4wmTpxojjCxxijNncXrEEAgcAIEo8B1CRUKo8Ds2bPl0UcfDUzV8/LyzBEhJyNAOsqkwUjv13Ck03BcCCCAQK4KEIxytedpt2cC9lEYHZ3RMJLo0hCyfv16KSkp6XFLS0uLzJw505NgYgUj+3RZojpZ02jWuiTPYCgIAQQQCKEAwSiEnUaVgyVgfQZvr1Xs/kH6L5oGKCeXk1GevspJJhhZ9WcarS9V/jkCCOSCAMEoF3qZNvoqYAWL5uZmc0rqtdde6/V9OjKjhxTqCJF16QjShg0buj6vd7IxY28vcRqM7IHNyeiSr5AUjgACCARAgGAUgE6gCuEWsIKRFSx0xEf3EIq9dAfqt956q9uXYbH32KflOjs7e7031WBkD0V9TQGGu4eoPQIIIOBcgGDk3Io7EYgrEBuMrJusv5/s1Jj1nJ/ByB7enAQ2uh4BBBDIFQGCUa70NO30TcAKMjqFdsEFF5jvSfRZvJNK+BmMdB3Rli1buqbsNBTptB0XAggggMApAYIRvwQEUhSwQpCuHXr22WfloYce6voyTQ9l1U/5k7l0g0b9es3t9FbsVJ5O8ekhsbEByG35ybSFexFAAIGwCRCMwtZj1DeQAvYRoiuvvFI2bdqUsJ7xFl/X19eLHtGho0XWsR5aQDILovfs2SMzZswQ/V/7VV1d3e1YED0kdvr06Z5sCxDIzqBSCCCAQAoCBKMU8HgUAbuAPRy5lbG+Rku0bilRubG7XT/yyCNy/fXXd7s91S/d3LaJ5xBAAIEwCRCMwtRb1DXwAvH2K4oNJHpYa1VVVVdbYj/Vt59ppvfqSFKiK3baTNc4bdy40VzrFLu/UjKjT4GHpoIIIICATwIEI59gKRaBZAWsvYd0qm358uXy6U9/2lxnpH/YL11/tHnzZnPKzX7ZF1LHC2isKUq2R7gfAQRyUYBglIu9TpsDKRAvzNg/9dcgpIFIg5F1aYiaNm2aGaSsK3YUyb7GKNmtAwIJRaUQQAABHwUIRj7iUjQCyQroxpD2s9Y08Nxxxx3dPv/XMp0EIuvdOoVmD12sNUq2V7gfAQRySYBglEu9TVtDIdDbF276RZl+9Wbtl6QNit2bSP+ebhHw6KOPyurVq2Xu3Llmu73aVTsUiFQSAQQQcClAMHIJx2MI+CkwderUbp/Y67veffddGTFihPk5/vr16+Wpp57qNq2m91jriKz1SrGLt61wlMqu2n62m7IRQACBTAsQjDLdA7wfAZtAvHVGkydPlq1bt8qBAwfMYBTvit2byOkhstYXcnqg7cyZM9nbiF8jAgjkvADBKOd/AgBkWiDRV2ZWvTSw6AiR/dI1Rp///OfNaTX9c/tlX6fU2yf6/fr1Ew1EyV66fYCGNIJUsnLcjwACYRAgGIWhl6hjVgok2qna+uzeGvWxN97J2WZOD6/dtm2buUO37qMUu5eSU3Bd6/Tkk0/K2LFjnT7CfQgggECgBQhGge4eKpdtAvE+udc2xvvKbMWKFebCar2s/YxiN22M52OtI/JjQ0cd3dLRq+HDh0tNTU3X69966y1zcTcXAgggEHYBglHYe5D6h0Ig3tohrbiuDbLCT2xDNITogbJ6+RFyvICzf+kW1Dp60U7KQACB3BEgGOVOX9PSDArYR3qeeOIJc32Ofkqva4R0eizRZT23Y8eOwC6MdrrQO4P8vBoBBBBwLEAwckzFjQi4F9D1RLqeR0eHYqfDbr75ZnnggQfiFq4jRjpypM/dfffdPZ51X6PUnoy3YJwRo9RMeRoBBIIhQDAKRj9QiywX0H/RZs2aJbrg2bqsL8v0yA79I95lrTOyb9SYSapEX9BxDlsme4V3I4CAlwIEIy81KQuBOAKx64ucfFlmFaMLnDUU6bV9+/auNUfpgtYgpCNd8TaTtBaM6zopJ4vC01Vn3oMAAgikIkAwSkWPZxFwIGCFBreftlsLnGN3sXbwale36Hv0q7MNGzb02FlbC4z3BZ2rF/EQAgggEEABglEAO4UqZY/AmDFjRA9t1SuVNTi6DkkXbCeacktFTIOQjmLZP7+3l9fbZpKpvJdnEUAAgSAKEIyC2CvUKSsEdBpq4sSJZiAK2on2fe22vXLlSnnnnXe6pvGyokNoBAIIIOBAgGDkAIlbEHAjoJs5Ll++vNsJ927KSfUZ6zy0qqqquKNCjAilKszzCCCQTQIEo2zqTdoSKIF0BCNrJ2o90sO6NADNnz+/z6k7RoUC9XOhMgggEBABglFAOoJqZJ+AfSpNW6dfb02fPt31Ro26BmjYsGEJF0X3JqghqKGhQerr65key76fGi1CAAEPBQhGHmJSFAKxAokOirXfp6fVa2BJdCWaArPu16mwq6++WlpaWrqK0PK0XD6j5zeJAAIIJCdAMErOi7sRcC2wZMkSWbp0qevn9UENOwcOHDC/UNNAxIUAAggg4K0AwchbT0pDICmBeGuEYgvQkSCCUFKs3IwAAgi4FiAYuabjQQQQQAABBBDINgGCUbb1KO1BAAEEEEAAAdcCBCPXdDyIAAIIIIAAAtkmQDDKth6lPQgggAACCCDgWoBg5JqOBxFAAAEEEEAg2wQIRtnWo7QHAQQQQAABBFwLEIxc0/EgAggggAACCGSbAMEo23qU9iCAAAIIIICAawGCkWs6HkQAAQQQQACBbBMgGGVbj9IeBBBAAAEEEHAtQDByTceDCCCAAAIIIJBtAgSjbOtR2oMAAggggAACrgUIRq7peBABBBBAAAEEsk2AYJRtPUp7EEAAAQQQQMC1AMHINR0PIoAAAggggEC2CRCMsq1HaQ8CCCCAAAIIuBYgGLmm40EEEEAAAQQQyDaBjAajYwsWStm9y7PNlPYggAACCCCAQEgFMhqMDuTlyfDOzpDSUW0EEEAAAQQQyDYBglG29SjtQQABBBBAAAHXAhkNRseXfktKF/+T68rHe7Bty3NSNO0yT8ukMAQQQAABBBDIDYGMBqOmG2+T8u/f36f0pk2bRP/44Q9/KFu3bpXJkycnfObYbfOk7P7VfZbJDQgggAACCCCAQKxARoNRvO6YOXOmlJSUmH9873vfk2g02u22GTNmyB133JEwHB2bf4eUrVxBTyOAAAIIIIAAAkkLBCoY5RmLsV966aVeR4S0hZFIRDqNRdv6v7EXwSjp3wAPIIAAAggggMAHAhkNRvb1QNddd53MmTOnRyjS8BM7aqT3PvLIIwmDUbSx6dQUXZzgRM8jgAACCCCAAAKJBDIWjDQUtf5ko5Q/vNasW6JRoHjBqLa21pxme+KJJ+hZBBBAAAEEEEDAM4GMBaPYFtxyyy2ydu3aHqNA8YKRPnv99debo0ZcCCCAAAIIIICAVwKBDka65mjYsGHy3nvv9WgvwcirnwDlIIAAAggggIAlEJhgZJ9K27Ztm0yZMkW2b98uEyZMiNtb11xzjTz++OM9/lnrT56U4i9eRQ8jgAACCCCAAAJJCwQmGFmLr1taWmT16tXmvkWJrlmzZpkLtaurq5NuMA8ggAACCCCAAAKJBAITjLSCV111lXzjG9+Q8ePH99pjidYj0c0IIIAAAggggEAqAoEKRtoQnVLbsWNHr+GoX79+cuLEibif66eCwbMIIIAAAgggkNsCGQ1GTX//FSn/tx/06AENR9dee62sW7euR/ix1h8l2uAxt7uT1iOAAAIIIIBAKgIZDUYnt74srY89EfdsM2uvIt3ccf369WYb9e+tWbNGNm7cmEqbeRYBBBBAAAEEEIgrkNFgpDXSQ19LvjJbCibGX1ekYejBBx80z07ThdlWSLK3pumGW9npmh84AggggAACCKQskPFgpC04VDlMql6qlYKLxrpq0PFF35DSu5dyBIgrPR5CAAEEEEAAAUsgEMHIDEclVTK4+aircHNk9HkycO8fXT3LTwEBBBBAAAEEEAhcMNIKudmcsX37TvM5Roz4USOAAAIIIIBAqgKBGTFy25Aj546Tih8/lnCNkttyeQ4BBBBAAAEEck8gkMHo8NAzpdwIO0XVn+yzR/TeQQf39nkfNyCAAAIIIIAAAn0JBDIY6ZdqZfev7qvu/HMEEEAAAQQQQMBTgUAGI09bSGEIIIAAAggggIBDAYKRQyhuQwABBBBAAIHsFwh1MGqr/Y3ZQ07WImV/V9JCBBBAAAEEEEhVILTBSEPRydrfSrSxUcpWrkjVgecRQAABBBBAAAEJdTBqe/oXUvzFq6RwysV0JQIIIIAAAgggkLJAaINRyi2nAAQQQAABBBBAIEaAYMRPAgEEEEAAAQQQ+ECAYMRPAQEEEEAAAQQQIBjxG0AAAQQQQAABBLoLMGLELwIBBBBAAAEEEGDEiN8AAggggAACCCDAiBG/AQQQQAABBBBAIK4AU2n8MBBAAAEEEEAAgXhTaQ899FBKMPX19bJ69eqUyuBhBBBAAAEEEEAgUwLdRozOOOMMz+uxePFiWbJkieflUiACCCCAAAIIIOC1QLdglMqIUUlJiWzYsEF27tzZZx3Hjx8v06ZNk2XLlkkkEunzfm5AAAEEEEAAAQTSIeDrGiMNSevXr5fhw4dLTU1N3PasWrVKdApO/9A/Jyilo9t5BwIIIIAAAgjEE/A1GCUiX7hwoWzZsiXu6JKOJn3+85+XK6+8UvTPuRBAAAEEEEAAgXQJZCQYWY2zRpSqqqoSTsPpdNv06dMJSen6RfAeBBBAAAEEclggo8Eonvu8efPkrLPO6jH1pqNHV199tRw4cIAv33L4B0vTEUAAAQQQ8FMgcMHI3lgdUdq8ebMsWrSom4G1eHv58uV+2lA2AggggAACCOSYQKCDkb0vdPH2sGHDeky5MdWWY79YmosAAggggICPAqEJRnaDeIu333rrLTn77LN9pKJoBBBAAAEEEMh2gVAGI6tT9uzZIzNmzBD9X+vS9Ulvv/12tvcb7UMAAQQQQAABHwRCHYwsDx0p0obYL0aQfPi1UCQCCCCAAAJZLpAVwcjeR/aQdMEFF8jGjRtF/5cLAQQQQAABBBDoSyDrgpE2WBs1ZswYiUajXe1nBKmvnwL/HAEEEEAAAQSyMhhZ3aqH1y5durSrl3Xtka5B4kIAAQQQQAABBOIJZHUwshpsn15jcTb/IiCAAAIIIIBAIoGcCEba+NjRI6bW+JcCAQQQQAABBGIFciYYxRs90r/H9Br/UiCAAAIIIICAJZBzwUgbHrs4m+k1/oVAAAEEEEAAASsjROrq6qJtbW0ycuTItKvMnj1bHn300bS/V18YiUS63sun/RnpAl6KAAIIIIBAoAQyMmIUu2N1pkds7IuzmVoL1O+TyiCAAAIIIJBWgbQHI31hvDPN7HsOpVXgg5fZwxELszPRA7wTAQQQQACBzAukLRjpKNFVV10lr732mtlqHSXSAJKXl2f+daaDkdaBz/oz/4OkBggggAACCGRSwPdgFO+g18WLF5ufz+tlrfMJQjDS+tgXZrPuKJM/Td6NAAIIIIBA+gV8C0axI0Tjx4+XadOmyfLly7u1MmjByKocU2vp/zHyRgQQQAABBDIt4Fswsn/x1dvi6qAGI+0YFmVn+ufJ+xFAAAEEEEivgO/BqK8pslSC0UsHj0lx/ulP7ls7onLJ0DJPBfWsNWvazz4F6OlLKAwBBBBAAAEEAiEQmGA0b948WblyZbe9hWKF3m8+KbUHmuSd462Sb9uDyLqvKC8ibZ1R8y81JP3t6Mpuf+02NI0ZM8bcIVsva9G4fUQsED1JJRBAAAEEEEAgZYGMB6M1a9aIhiIdldERmd6ul+uOy9a6JjMUNZ3s7BZ8NBT9fF9D1wiS3tMRPRWS9LL/tf79Uf2L5ZoxAx0D2rcZ4HN+x2zciAACCCCAQKgEMh6MrKmq1atXy9y5c3vFe+XwCWPEqFEuH1kpHxnQr9d7D7W0y5tNLVJgBCYNRW82tZp/rX+uIUrD0V8OLktq6s0ejtgIMlS/cyqLAAIIIICAIwFfgpE9QPS1xqimpkY0FOnV2dnZ61SaFYyqh1fIpEH9HTUw3k1/ONosv3q3QdyUY/+cP9M7drsG4EEEEEAAAQQQiCvgSzCy1t84Xaxs3Z+uYJRqwLIHP9Yc8W8WAggggAAC2SPgeTDauXOnTJgwwdEIkMUYtmCk9WbNUfb8S0BLEEAAAQQQsAQ8D0YrVqyQhQsXiu4avXv37l6nxsIcjGLDEWuO+JcKAQQQQACB8At4Hoys0R89E03DkZMrjCNG9mSpn/PrWirCkZPe5h4EEEAAAQSCK+BpMLLv99PXomuLxL67dFjWGMV2ZzKLzYP7U6BmCCCAAAIIIJByMKqtrZXq6upuh686HTmxByknz1iLpj81okLGD3T/VVqqi6/j/WysgMdibP6lQgABBBBAILwCKQWjvLw8cwpp3bp1ct1115kKTj9htx+14SQUadnWBo+jS4vl7z40wLW6H8FIK2NNCTo1cN0AHkQAAQQQQAABXwRSCka6/5DuQ2RdkydPlq1btzqqqBUinOx4bRWomzY+9tZh45iPTrl93AhH74l3k1/ByD6llky7XDeEBxFAAAEEEEDAU4GMBCP7uiKna5GsVt/76gHzTxdcNNw1hF/BSCtk3wDS6UiY64bwIAIIIIAAAgh4KpBSMLKm0nSNka410quvaaQ9e/bI2LFjzXvdnDkW9GBkhSMNf3oRjjz9vVIYAggggAACvgp4Eox01Mc+UqJTai0tLXLgwAF57733ujVAQ5GGo2T2ObIXcM+u98zzzoI6YmTV1T6t1tfXdr72MIUjgAACCCCAgGOBlILRLbfcInPmzJHx48ebL9R1Nbqo2n7NmzdPVq1aZf4te1hIZp8je3k/e+eo7DvemvQBsPYy/JxKs7/H/qWajhxxIYAAAggggECwBVIKRvGaZv/aTP+5PRhZU2+pLEzeeeSE/Pq9RlcHwFr1TVcw0vdZI2R9TTEG+2dC7RBAAAEEEMgNAc+DkbJNmTJFtm3bZgpai6v16zX9is3+99wQe7GXUTqDkU4bXnjhheyM7aazeQYBBBBAAIE0C/gejKyREmsk6cEHHzSn39xeLx08Jv916JikspdROoORtpP1Rm57m+cQQAABBBBIr4DnwSh2Kk2bY40U6ajR+eefL7q+KJVLv0zrMBZ8u93LyApGfzW0XC4eUppKVRw/a59S06/xrH2cHBfAjQgggAACCCDgu4Dnwcj6D/7y5cvNkaEBA07tUL1p0yaZMWOGDBs2rMeXasm2MtVP9nXU6Zd/bjC/bKsqyk/29a7uT3WbAlcv5SEEEEAAAQQQSErA02AU7xDZZA6JdVrzVIOR9R7dSVsXcr9jfOWm1znlJcYfxXKivVMuGVrmtDqO77NvaZDsxpaOX8KNCCCAAAIIIOBawLNgZA9AsZsa9vbP3NT87t+/J+WFeTJpUGlKAea37x+T2gON0r8gz9wbSS+doivKixjHjkTNP9ewNKp/oTHl5k1Qsr7MY+NHNz3PMwgggAACCPgr4EkwchJ8nNzjtKl/ONosv3q3IaVP9mPfpaNHbza1mCHp5/sapDg/0hWWjD+V5o5OT0ISo0ZOe5n7EEAAAQQQSL9AysHIHnj6OuIj3lSbmyan66syDUv7T7TJs/sbzMBkXUNLCuWaMQPdVN18xnLQL/ZYiO2akQcRQAABBBDwXCClYDR//vyuXa2dTg3dfPPNon9Yu2W7aVG6gpG9blZI+u37Tebokdsv4qwyrUXqfYVJNz48gwACCCCAAALuBFIKRtan+fo5/ty5c93VwMVTfkylOa2GVwu/7SNt27dvlwkTJjitAvchgAACCCCAgE8CKQWjO++8U5YtW9bt2A+f6tmtWK8WX7upq1fBSN9t7W2khgsXLnRTHZ5BAAEEEEAAAQ8FUgpGtbW1sn79etHdrNN5eRlOkq23l++2HxeyY8eOlKYXk20H9yOAAAIIIIBAT4GUglGmQL0MJ8m2wet3r1ixwhwt0g0x77jjjmSrw/0IIIAAAggg4KEAwShJTK+D0c6dO2XixInmIbOMGiXZGdyOAAIIIICAxwIEoyRBvQ5G+npGjZLsBG5HAAEEEEDAJwGCUZKwfgQjHTWyvkrbvXu3uSibCwEEEEAAAQTSL0AwStLcj2CkVbC2PrjgggvktddeS7JW3I4AAggggAACXggQjJJU9CsYaTWsTR+dbpaZZNW5HQEEEEAAAQT6EAhsMNIdpsdW9pPBJQU9muBnOOnrF+PnuzlHrS99/jkCCCCAAAL+CgQyGN25fb/oeWQn2jvlpg8P6RGO/AwnfXH7/e68vDzzCzWdTtNpNS4EEEAAAQQQSJ9AIIPRy3XH5OAHp91PGVIuFw8p7SaiO1/roa5fHjMo7oiSn3x+ByPWGvnZe5SNAAIIIIBA7wKBDEZa5Z1HTsiv32uU6uEVMmlQ/26tsM5K+9SIChk/sPs/87vD/Q5GWn9rrRH7Gvndm5SPAAIIIIBAd4G0BiMdCfpjY6v87egqqSrK77UvXjl8QmoPxA9GGpp0DVJbZ1QuH1lh/q+fV34kIm82tRp/tEhZQb4cbm2Xuz420rdXrlmzxjx/bsmSJbJ48WLf3kPBCCCAAAIIIJDBYPSNHX+WIcZi6qaTnfLVsUOlvDBxOEoUjO4yyviroWVmUOkw1uL4HYosLg1HbZ2d8qHSYpl2RmWfwS6VH1pNTY2sXr3aPDtt+/btXSNIqZTJswgggAACCCDQt0BaR4zq2zpky58bjPVDJ81wdOsFQxMGjERTaUt2/tlcmK2hSKfSmjs6+26lB3e0dkTlEiOQpeuyptM0GFmbP6br3bwHAQQQQACBXBVIazCykDe8fcQMRxpwrj57YFz7n71zVPYdb5XeFl/rF2u6CDsbL2s6bdmyZeYhs1wIIIAAAggg4L9ARoKRjhw9+sYhc2rq9nEj4rbynl3vSZHx6Xq8L890NEnXH43oV5QwWPlP5+8brOk0fYt+vs+FAAIIIIAAAv4LZCQYabP6+rpL/7lOq7GWdQAABEtJREFUl8ULToeMT/kfe+twr8HKfzr/32BNpxGM/LfmDQgggAACCKhAIIPRSwePyX8dOiajjYXOf/ehAXF7qq9glQ3dSzDKhl6kDQgggAACYRIIZDBysk9RLgQjXXS9c+dO89P9VatWhel3RV0RQAABBBAIpUBGgpGOCL1y+Lj5ZdqdH+25xkh3ti4vzDM2dixN+CVYLgSjFStWmAuvly9fLnfccUcof2BUGgEEEEAAgTAJZCQYWSNCl4+slI8M6NfDq7f1RdbNuRCMFi1aZIYi3c9Id8HmQgABBBBAAAF/BTISjHobEXq57rhsrWvqdX2RkuRCMNJptIkTJ5pfpbEA299/ESgdAQQQQAABFUh7MGo62SE/eD3xp/q97V9k77JcCEba3jxjywKCEf+yIoAAAgggkB6BtAYjDUXfee2guX5oUHGhXDOm++aOegzIb99vlBPt0bhrjwhG6flR8BYEEEAAAQRyVSCtweibv3vXPAIkXijSDrCm2C4ZWm4svO7fa58wYpSrP1najQACCCCAgH8CaQ1GeojsBZX9eowUafN0tOilg00Jv1SLJSAY+fejoGQEEEAAAQRyVSCtwSgRsk6xPfC/B40jQCLyiWEVfY4W5crO1+rFGqNc/VeTdiOAAAIIZEIg48Gor3VH8VCstUi97YydCUw/3kkw8kOVMhFAAAEEEIgvkPFgdJcxvTaouECGlvRcjJ2o06wv15yMLoW94wlGYe9B6o8AAgggECaBjAcj3QVbr0uGljl2u2fXe8a0W558ecwgGVxS4Pi5MN5IMApjr1FnBBBAAIGwCmQ8GCULZx0n0tYZlQUXDU/28dDdr8Ho4osvlq1bt4au7lQYAQQQQACBsAl0C0ZtbW1hqz/1RQCBLBG4/fbbe7TknnvuyZLW0QwEEAiLgJ5NGqmrq4tqKOrs7AxLvaknAghkmcD8+fPlxz/+cVervvSlL8nKlSuzrJU0BwEEgi6wYMGCU8Govb096HWlfgggkMUCX/va13oEo/vuuy+LW0zTEEAgiAJz5849FYyCWDnqhAACuSNw66239ghGa9euzR0AWooAAoEQuO222yRy9OhRglEguoNKIJC7AjfddFOPxj/00EO5C0LLEUAgIwJz5syRSFNTE8EoI/y8FAEEEEAAAQSCJhBpaWkhGAWtV6gPAggggAACCGREgGCUEXZeigACCCCAAAJBFCAYBbFXqBMCCCCAAAIIZESAYJQRdl6KAAIIIIAAAkEUIBgFsVeoEwIIIIAAAghkRIBglBF2XooAAggggAACQRQgGAWxV6gTAggggAACCGREgGCUEXZeigACCCCAAAJBFCAYBbFXqBMCCCCAAAIIZESAYJQRdl6KAAIIIIAAAkEUIBgFsVeoEwIIIIAAAghkRIBglBF2XooAAggggAACQRQgGAWxV6gTAggggAACCGREgGCUEXZeigACCCCAAAJBFPj/A0bsLlz695UAAAAASUVORK5CYII=;" vertex="1" parent="1">
          <mxGeometry x="15.810000000000002" y="650" width="208.39" height="140" as="geometry" />
        </mxCell>
        <mxCell id="RpqOekbnM1O3A4IwLTI4-68" value="Effect Player" style="whiteSpace=wrap;html=1;" vertex="1" parent="1">
          <mxGeometry x="475" y="895" width="80" height="30" as="geometry" />
        </mxCell>
        <mxCell id="RpqOekbnM1O3A4IwLTI4-69" value="Damageable" style="text;html=1;align=center;verticalAlign=middle;resizable=0;points=[];autosize=1;strokeColor=none;fillColor=none;" vertex="1" parent="1">
          <mxGeometry x="50" y="140" width="100" height="30" as="geometry" />
        </mxCell>
        <mxCell id="RpqOekbnM1O3A4IwLTI4-70" value="Health" style="text;html=1;strokeColor=none;fillColor=none;align=center;verticalAlign=middle;whiteSpace=wrap;rounded=0;" vertex="1" parent="1">
          <mxGeometry x="60" y="160" width="80" height="30" as="geometry" />
        </mxCell>
        <mxCell id="RpqOekbnM1O3A4IwLTI4-72" style="edgeStyle=orthogonalEdgeStyle;rounded=0;orthogonalLoop=1;jettySize=auto;html=1;exitX=1;exitY=0.5;exitDx=0;exitDy=0;dashed=1;" edge="1" parent="1" source="RpqOekbnM1O3A4IwLTI4-71">
          <mxGeometry relative="1" as="geometry">
            <mxPoint x="780" y="380" as="targetPoint" />
          </mxGeometry>
        </mxCell>
        <mxCell id="RpqOekbnM1O3A4IwLTI4-71" value="EnemyParty for enemy movement/behaviour" style="rounded=0;whiteSpace=wrap;html=1;" vertex="1" parent="1">
          <mxGeometry x="580" y="480" width="120" height="60" as="geometry" />
        </mxCell>
      </root>
    </mxGraphModel>
  </diagram>
</mxfile>
